<svg width="580" height="400" xmlns="http://www.w3.org/2000/svg">
 <!-- Created with Method Draw - http://github.com/duopixel/Method-Draw/ -->

 <g>
  <title>background</title>
  <rect x="-1" y="-1" width="582" height="402" id="canvas_background" fill="none"/>
  <g id="canvasGrid" display="none">
   <rect id="svg_1" width="100%" height="100%" x="0" y="0" stroke-width="0" fill="url(#gridpattern)"/>
  </g>
 </g>
 <g>
  <title>Layer 1</title>
  <g stroke="null" id="svg_23">
   <g stroke="null" id="svg_5" transform="matrix(0.7517359732505421,0,0,0.8212526659488264,-450.3767125228478,-448.99321129226155) ">
    <g stroke="null" id="svg_6">
     <polygon stroke="null" points="978.9032211303711,703.2402000427246 850.9031600952148,831.2402000427246 881.0901718139648,861.4262351989746 978.9032211303711,763.6131858825684 1076.716209411621,861.4262351989746 1106.903221130371,831.2402000427246 " id="svg_7" fill="#ffffff"/>
    </g>
   </g>
   <g stroke="null" id="svg_8" transform="matrix(0.7517359732505421,0,0,0.8212526659488264,-450.3767125228478,-448.99321129226155) "/>
   <g stroke="null" id="svg_9" transform="matrix(0.7517359732505421,0,0,0.8212526659488264,-450.3767125228478,-448.99321129226155) "/>
   <g stroke="null" id="svg_10" transform="matrix(0.7517359732505421,0,0,0.8212526659488264,-450.3767125228478,-448.99321129226155) "/>
   <g stroke="null" id="svg_11" transform="matrix(0.7517359732505421,0,0,0.8212526659488264,-450.3767125228478,-448.99321129226155) "/>
   <g stroke="null" id="svg_12" transform="matrix(0.7517359732505421,0,0,0.8212526659488264,-450.3767125228478,-448.99321129226155) "/>
   <g stroke="null" id="svg_13" transform="matrix(0.7517359732505421,0,0,0.8212526659488264,-450.3767125228478,-448.99321129226155) "/>
   <g stroke="null" id="svg_14" transform="matrix(0.7517359732505421,0,0,0.8212526659488264,-450.3767125228478,-448.99321129226155) "/>
   <g stroke="null" id="svg_15" transform="matrix(0.7517359732505421,0,0,0.8212526659488264,-450.3767125228478,-448.99321129226155) "/>
   <g stroke="null" id="svg_16" transform="matrix(0.7517359732505421,0,0,0.8212526659488264,-450.3767125228478,-448.99321129226155) "/>
   <g stroke="null" id="svg_17" transform="matrix(0.7517359732505421,0,0,0.8212526659488264,-450.3767125228478,-448.99321129226155) "/>
   <g stroke="null" id="svg_18" transform="matrix(0.7517359732505421,0,0,0.8212526659488264,-450.3767125228478,-448.99321129226155) "/>
   <g stroke="null" id="svg_19" transform="matrix(0.7517359732505421,0,0,0.8212526659488264,-450.3767125228478,-448.99321129226155) "/>
   <g stroke="null" id="svg_20" transform="matrix(0.7517359732505421,0,0,0.8212526659488264,-450.3767125228478,-448.99321129226155) "/>
   <g stroke="null" id="svg_21" transform="matrix(0.7517359732505421,0,0,0.8212526659488264,-450.3767125228478,-448.99321129226155) "/>
   <g stroke="null" id="svg_22" transform="matrix(0.7517359732505421,0,0,0.8212526659488264,-450.3767125228478,-448.99321129226155) "/>
  </g>
 </g>
</svg>