<svg height="512pt" viewBox="0 -36 512 512" width="512pt" xmlns="http://www.w3.org/2000/svg"><path d="m143 10c0 5.523438-4.476562 10-10 10s-10-4.476562-10-10 4.476562-10 10-10 10 4.476562 10 10zm0 0"/><path d="m379 0c-56.804688 0-98.480469 38.074219-122.976562 88.574219-11.726563-24.261719-35.105469-60.894531-74.910157-78.546875-5.046875-2.238282-10.957031.039062-13.195312 5.085937-2.238281 5.050781.039062 10.957031 5.085937 13.195313 52.660156 23.355468 73.226563 88.941406 73.425782 89.589844 1.273437 4.210937 5.15625 7.089843 9.558593 7.09375h.011719c4.398438 0 8.28125-2.875 9.566406-7.082032 11.859375-39.070312 50.421875-97.910156 113.433594-97.910156 63.363281 0 113 53.378906 113 121.519531 0 33.542969-12.519531 64.074219-40.484375 98.480469h-79.894531l-30.980469-112.652344c-1.167969-4.242187-4.972656-7.226562-9.375-7.34375-4.371094-.136718-8.359375 2.65625-9.753906 6.835938l-50.511719 151.539062-20.511719-61.539062c-1.363281-4.085938-5.183593-6.839844-9.488281-6.839844h-52.792969l-27.71875-83.160156c-1.394531-4.179688-5.335937-6.996094-9.753906-6.835938-4.402344.117188-8.210937 3.101563-9.375 7.34375l-30.980469 112.652344h-49.894531c-27.964844-34.40625-40.484375-64.9375-40.484375-98.480469 0-51.546875 28.457031-96.230469 72.496094-113.835937 5.128906-2.050782 7.625-7.871094 5.574218-13-2.046874-5.128906-7.867187-7.625-12.996093-5.570313-50.59375 20.222657-85.074219 72.144531-85.074219 132.40625 0 33.671875 11.292969 65.367188 35.28125 98.480469h-25.28125c-5.523438 0-10 4.476562-10 10s4.476562 10 10 10h41.140625c44.421875 51.664062 115.175781 104.820312 198.273437 177.527344 1.886719 1.648437 4.234376 2.472656 6.585938 2.472656s4.699219-.824219 6.585938-2.472656c83-72.621094 153.878906-125.890625 198.273437-177.527344h41.140625c5.523438 0 10-4.476562 10-10s-4.476562-10-10-10h-25.28125c23.988281-33.117188 35.28125-64.808594 35.28125-98.480469 0-76.605469-56.183594-141.519531-133-141.519531zm-123 416.730469c-72.8125-63.324219-135.476562-111.582031-177.941406-156.730469h39.941406c4.5 0 8.449219-3.007812 9.640625-7.347656l24.277344-88.277344 19.59375 58.785156c1.363281 4.085938 5.183593 6.839844 9.488281 6.839844h52.792969l27.71875 83.160156c1.359375 4.085938 5.183593 6.839844 9.488281 6.839844s8.125-2.753906 9.484375-6.839844l49.597656-148.785156 24.273438 88.277344c1.195312 4.339844 5.140625 7.335937 9.644531 7.335937h69.941406c-42.449218 45.132813-105.226562 93.503907-177.941406 156.742188zm0 0"/></svg>