<svg width="511.996" height="511.996" xmlns="http://www.w3.org/2000/svg">

 <g>
  <title>background</title>
  <rect fill="none" id="canvas_background" height="402" width="582" y="-1" x="-1"/>
 </g>
 <g>
  <title>Layer 1</title>
  <path fill="#ffffff" id="svg_1" d="m230.9,253.371c13.369,8.913 36.827,8.914 50.199,-0.001c0.002,-0.001 0.005,-0.003 0.007,-0.004l227.865,-151.911c-7.474,-21.616 -28.018,-37.188 -52.142,-37.188l-401.663,0c-24.125,0 -44.668,15.572 -52.143,37.188l227.87,151.912c0.003,0.002 0.005,0.002 0.007,0.004z"/>
  <path fill="#ffffff" id="svg_2" d="m297.746,278.328c-0.003,0.002 -0.005,0.004 -0.007,0.005c-11.702,7.801 -26.724,11.702 -41.741,11.702c-15.02,0 -30.036,-3.9 -41.739,-11.703c-0.002,-0.001 -0.003,-0.002 -0.005,-0.003l-214.254,-142.835l0,257.072c0,30.417 24.747,55.163 55.166,55.163l401.666,0c30.418,0 55.164,-24.746 55.164,-55.163l0,-257.072l-214.25,142.834z"/>
 </g>
</svg>