<svg width="512" height="512" xmlns="http://www.w3.org/2000/svg">

 <g>
  <title>background</title>
  <rect fill="none" id="canvas_background" height="402" width="582" y="-1" x="-1"/>
 </g>
 <g>
  <title>Layer 1</title>
  <g id="svg_1">
   <g id="svg_2">
    <path fill="#ffffff" id="svg_3" d="m225.474,0c-124.323,0 -225.474,101.151 -225.474,225.474c0,124.33 101.151,225.474 225.474,225.474c124.33,0 225.474,-101.144 225.474,-225.474c0,-124.323 -101.144,-225.474 -225.474,-225.474zm0,409.323c-101.373,0 -183.848,-82.475 -183.848,-183.848s82.475,-183.849 183.848,-183.849s183.848,82.475 183.848,183.848s-82.475,183.849 -183.848,183.849z"/>
   </g>
  </g>
  <g id="svg_4">
   <g id="svg_5">
    <path fill="#ffffff" id="svg_6" d="m505.902,476.472l-119.328,-119.328c-8.131,-8.131 -21.299,-8.131 -29.43,0c-8.131,8.124 -8.131,21.306 0,29.43l119.328,119.328c4.065,4.065 9.387,6.098 14.715,6.098c5.321,0 10.649,-2.033 14.715,-6.098c8.131,-8.124 8.131,-21.306 0,-29.43z"/>
   </g>
  </g>
  <g id="svg_7"/>
  <g id="svg_8"/>
  <g id="svg_9"/>
  <g id="svg_10"/>
  <g id="svg_11"/>
  <g id="svg_12"/>
  <g id="svg_13"/>
  <g id="svg_14"/>
  <g id="svg_15"/>
  <g id="svg_16"/>
  <g id="svg_17"/>
  <g id="svg_18"/>
  <g id="svg_19"/>
  <g id="svg_20"/>
  <g id="svg_21"/>
 </g>
</svg>