<?xml version="1.0" encoding="iso-8859-1"?>
<!-- Generator: Adobe Illustrator 19.0.0, SVG Export Plug-In . SVG Version: 6.00 Build 0)  -->
<svg version="1.1" id="Capa_1" xmlns="http://www.w3.org/2000/svg" xmlns:xlink="http://www.w3.org/1999/xlink" x="0px" y="0px"
	 viewBox="0 0 512 512" style="enable-background:new 0 0 512 512;" xml:space="preserve">
<g>
	<g>
		<path d="M449.723,306.355l-50.292-16.171l17.368-140.645C470.119,144.581,512,99.593,512,45c0-24.813-20.187-45-45-45
			s-45,20.187-45,45c0,8.271-6.729,15-15,15h-30c-22.87,0-41.795,17.152-44.622,39.266c-0.008,0.059-0.023,0.115-0.03,0.173
			l-20.113,162.708L176.65,218.552l-0.017-0.005c-4.191-1.357-8.445-2.48-12.74-3.418L155.927,150h6.59
			C188.699,150,210,128.699,210,102.517c0-23.307-16.687-43.005-39.677-46.837L65.527,38.215C31.217,32.494,0,58.984,0,93.725
			C0,124.755,25.245,150,56.276,150h8.969l9.347,76.294C30.4,248.501,0,294.264,0,347c0,30.566,10.381,59.98,29.036,83.627
			C11.648,441.147,0,460.238,0,482v15c0,8.284,6.716,15,15,15h90c8.284,0,15-6.716,15-15v-15c0-0.279-0.017-0.553-0.021-0.831
			C124.951,481.721,129.964,482,135,482h257v15c0,8.284,6.716,15,15,15h90c8.284,0,15-6.716,15-15v-15
			c0-15.308-5.771-29.289-15.241-39.901C506.654,427.382,512,410.063,512,392C512,352.838,486.984,318.424,449.723,306.355z
			 M362.077,103.474l0.002-0.019C362.856,95.907,369.251,90,377,90h30c24.813,0,45-20.187,45-45c0-8.271,6.729-15,15-15
			s15,6.729,15,15c0,41.355-33.645,75-75,75h-30c-8.271,0-15-6.729-15-15C362,104.485,362.026,103.976,362.077,103.474z
			 M356.914,145.251C362.965,148.283,369.784,150,377,150h9.514l-16.157,130.836l-29.05-9.341L356.914,145.251z M56.276,120
			C41.787,120,30,108.213,30,93.725c0-16.234,14.589-28.587,30.596-25.918l104.796,17.466c8.464,1.41,14.608,8.663,14.608,17.244
			c0,9.64-7.843,17.483-17.483,17.483H56.276z M133.289,212.022c-10.235,0.128-20.199,1.398-29.77,3.693L95.469,150h30.234
			L133.289,212.022z M30,482c0-16.542,13.458-30,30-30s30,13.458,30,30H30z M422,482c0-16.542,13.458-30,30-30s30,13.458,30,30H422z
			 M471.847,425.388C465.631,423.203,458.955,422,452,422c-22.159,0-41.537,12.084-51.928,30H135c-8.447,0-16.802-1.015-24.918-2.99
			c-10.477-15.852-28.265-26.45-48.524-26.971C41.435,402.333,30,375.298,30,347c0-57.897,47.103-105,105-105
			c11.072,0,21.969,1.711,32.389,5.086l21.405,6.933c0.399,0.129,0.799,0.241,1.2,0.335l250.515,80.55
			C465.327,342.944,482,365.888,482,392C482,404.037,478.438,415.58,471.847,425.388z"/>
	</g>
</g>
<g>
	<g>
		<path d="M255,392h-25.458l-25.092-16.728C208.017,366.541,210,357,210,347c0-41.355-33.645-75-75-75s-75,33.645-75,75
			c0,41.355,33.645,75,75,75c20.568,0,39.224-8.327,52.787-21.781l28.893,19.262c2.464,1.643,5.359,2.519,8.32,2.519h30
			c8.284,0,15-6.716,15-15S263.284,392,255,392z M178.622,358.054L143.32,334.52c-6.891-4.595-16.206-2.733-20.801,4.16
			c-4.595,6.893-2.732,16.206,4.161,20.801l35.284,23.523C154.444,388.65,145.106,392,135,392c-24.813,0-45-20.187-45-45
			s20.187-45,45-45s45,20.187,45,45C180,350.813,179.519,354.516,178.622,358.054z"/>
	</g>
</g>
<g>
	<g>
		<path d="M377,332c-24.813,0-45,20.187-45,45s20.187,45,45,45s45-20.187,45-45S401.813,332,377,332z M377,392
			c-8.271,0-15-6.729-15-15s6.729-15,15-15s15,6.729,15,15S385.271,392,377,392z"/>
	</g>
</g>
<g>
</g>
<g>
</g>
<g>
</g>
<g>
</g>
<g>
</g>
<g>
</g>
<g>
</g>
<g>
</g>
<g>
</g>
<g>
</g>
<g>
</g>
<g>
</g>
<g>
</g>
<g>
</g>
<g>
</g>
</svg>
