<svg width="22.88" height="22.88" xmlns="http://www.w3.org/2000/svg">

 <g>
  <title>background</title>
  <rect fill="none" id="canvas_background" height="402" width="582" y="-1" x="-1"/>
 </g>
 <g>
  <title>Layer 1</title>
  <path id="svg_1" fill="#ffffff" d="m0.324,1.909c-0.429,-0.429 -0.429,-1.143 0,-1.587c0.444,-0.429 1.143,-0.429 1.587,0l9.523,9.539l9.539,-9.539c0.429,-0.429 1.143,-0.429 1.571,0c0.444,0.444 0.444,1.159 0,1.587l-9.523,9.524l9.523,9.539c0.444,0.429 0.444,1.143 0,1.587c-0.429,0.429 -1.143,0.429 -1.571,0l-9.539,-9.539l-9.523,9.539c-0.444,0.429 -1.143,0.429 -1.587,0c-0.429,-0.444 -0.429,-1.159 0,-1.587l9.523,-9.539l-9.523,-9.524z"/>
  <g id="svg_2"/>
  <g id="svg_3"/>
  <g id="svg_4"/>
  <g id="svg_5"/>
  <g id="svg_6"/>
  <g id="svg_7"/>
  <g id="svg_8"/>
  <g id="svg_9"/>
  <g id="svg_10"/>
  <g id="svg_11"/>
  <g id="svg_12"/>
  <g id="svg_13"/>
  <g id="svg_14"/>
  <g id="svg_15"/>
  <g id="svg_16"/>
 </g>
</svg>